<svg xmlns="http://www.w3.org/2000/svg" xmlns:xlink="http://www.w3.org/1999/xlink" version="1.0" x="0px" y="0px" viewBox="0 0 91 113.75" enable-background="new 0 0 91 91" xml:space="preserve"><line fill="none" x1="51.038" y1="76.82" x2="51.038" y2="16.742"/><path fill="none" d="M57.195,84.097c0,1.543-1.255,2.799-2.799,2.799c-0.45,0-0.87-0.117-1.248-0.307  c-0.258,0.436-0.546,0.85-0.871,1.234c0.625,0.357,1.348,0.564,2.119,0.564c2.366,0,4.291-1.925,4.291-4.291  s-1.925-4.291-4.291-4.291v1.492C55.94,81.298,57.195,82.554,57.195,84.097z"/><path fill="none" d="M54.396,19.727V76.82h19.591V7.786H34.806v2.985h10.635C50.387,10.771,54.396,14.781,54.396,19.727z"/><g><path d="M33.313,81.298c-1.544,0-2.799,1.256-2.799,2.799s1.255,2.799,2.799,2.799c1.543,0,2.798-1.256,2.798-2.799   S34.857,81.298,33.313,81.298z"/><path d="M52.904,82.044V19.727c0-4.946-4.01-8.956-8.956-8.956h-21.27c-4.946,0-8.956,4.01-8.956,8.956v62.317   c0,4.946,4.01,8.956,8.956,8.956h21.27C48.895,91,52.904,86.99,52.904,82.044z M33.313,88.388c-2.366,0-4.292-1.925-4.292-4.291   s1.926-4.291,4.292-4.291s4.291,1.925,4.291,4.291S35.679,88.388,33.313,88.388z M49.546,77.566H17.081V16.742h32.465V77.566z"/><path d="M57.195,84.097c0-1.543-1.255-2.799-2.799-2.799v0.746c0,1.661-0.461,3.211-1.248,4.545   c0.378,0.189,0.798,0.307,1.248,0.307C55.94,86.896,57.195,85.64,57.195,84.097z"/><path d="M68.017,0.323h-27.24c-4.946,0-8.956,4.01-8.956,8.956h2.985V7.786h39.181V76.82H54.396v2.985   c2.366,0,4.291,1.925,4.291,4.291s-1.925,4.291-4.291,4.291c-0.771,0-1.494-0.207-2.119-0.564C51.541,88.874,49.691,91,48.426,91   h19.591c4.946,0,8.956-4.01,8.956-8.956V9.279C76.973,4.333,72.963,0.323,68.017,0.323z"/></g><line x1="34.806" y1="9.279" x2="31.821" y2="9.279"/><text x="0" y="106" fill="#000000" font-size="5px" font-weight="bold" font-family="'Helvetica Neue', Helvetica, Arial-Unicode, Arial, Sans-serif">Created by BomSymbols</text><text x="0" y="111" fill="#000000" font-size="5px" font-weight="bold" font-family="'Helvetica Neue', Helvetica, Arial-Unicode, Arial, Sans-serif">from the Noun Project</text></svg>